<?xml version="1.0" encoding="UTF-8" standalone="no"?><!DOCTYPE svg PUBLIC "-//W3C//DTD SVG 1.1//EN" "http://www.w3.org/Graphics/SVG/1.1/DTD/svg11.dtd"><svg width="100%" height="100%" viewBox="0 0 3334 3750" version="1.1" xmlns="http://www.w3.org/2000/svg" xmlns:xlink="http://www.w3.org/1999/xlink" xml:space="preserve" xmlns:serif="http://www.serif.com/" style="fill-rule:evenodd;clip-rule:evenodd;stroke-linejoin:round;stroke-miterlimit:2;"><rect id="logo" x="0" y="0" width="3333.33" height="3750" style="fill:none;"/><rect x="698.661" y="594.943" width="2083.33" height="2944.98" style="fill:#6b7280;"/><rect x="1634.87" y="590.897" width="208.333" height="2944.98" style="fill:#9ca3af;"/><path d="M2782.51,335.331c0,-47.761 -38.776,-86.537 -86.537,-86.537l-1910.26,-0c-47.761,-0 -86.537,38.776 -86.537,86.537l-0,259.612l2083.33,-0l0,-259.612Z" style="fill:#e5e7eb;"/><g><path d="M348.471,888.845c-5.749,-9.958 -18.501,-13.375 -28.459,-7.625l-36.084,20.833c-9.958,5.749 -13.375,18.501 -7.626,28.459l1451.66,2514.35c5.749,9.958 18.501,13.375 28.459,7.626l36.084,-20.834c9.958,-5.749 13.375,-18.501 7.626,-28.458l-1451.66,-2514.35Z"/><path d="M593.891,1133.6c-17.433,-30.194 -56.1,-40.555 -86.294,-23.122l-109.416,63.172c-30.194,17.432 -40.555,56.099 -23.123,86.293l65.243,113.004c17.433,30.194 56.1,40.555 86.294,23.123l109.416,-63.172c30.195,-17.433 40.555,-56.1 23.123,-86.294l-65.243,-113.004Z" style="fill:#d97706;"/></g><rect x="699.227" y="3343.21" width="2083.33" height="208.333" style="fill:#ef4444;"/></svg>